<?xml version="1.0" standalone="no"?>
<!DOCTYPE svg PUBLIC "-//W3C//DTD SVG 1.1//EN" "http://www.w3.org/Graphics/SVG/1.1/DTD/svg11.dtd" >
<svg xmlns="http://www.w3.org/2000/svg">
<metadata></metadata>
<defs>
<font id="pushpopglyphsregular" horiz-adv-x="1624" >
<font-face units-per-em="2048" ascent="1536" descent="-512" />
<missing-glyph horiz-adv-x="500" />
<glyph horiz-adv-x="2048" />
<glyph horiz-adv-x="2048" />
<glyph unicode="&#xd;" horiz-adv-x="2048" />
<glyph unicode=" " d="M0 0v1536h1624v-1536h-1624z" />
<glyph unicode="&#xa0;" d="M0 0v1536h1624v-1536h-1624z" />
<glyph unicode="&#x2000;" horiz-adv-x="812" />
<glyph unicode="&#x2001;" />
<glyph unicode="&#x2002;" horiz-adv-x="812" />
<glyph unicode="&#x2003;" />
<glyph unicode="&#x2004;" horiz-adv-x="541" />
<glyph unicode="&#x2005;" horiz-adv-x="406" />
<glyph unicode="&#x2006;" horiz-adv-x="270" />
<glyph unicode="&#x2007;" horiz-adv-x="270" />
<glyph unicode="&#x2008;" horiz-adv-x="203" />
<glyph unicode="&#x2009;" horiz-adv-x="324" />
<glyph unicode="&#x200a;" horiz-adv-x="90" />
<glyph unicode="&#x202f;" horiz-adv-x="324" />
<glyph unicode="&#x205f;" horiz-adv-x="406" />
<glyph unicode="&#xe000;" horiz-adv-x="1024" d="M0 0z" />
<glyph unicode="&#xf000;" horiz-adv-x="960" d="M0 193l578 575l-578 575l193 193l768 -768l-768 -768z" />
<glyph unicode="&#xf001;" d="M0 633v366h1624v-366h-1624z" />
<glyph unicode="&#xf002;" d="M0 612v400h612v612h400v-612h612v-400h-612v-612h-400v612h-612z" />
<glyph unicode="&#xf003;" horiz-adv-x="1454" d="M59.5 643q-0.5 39 15 70.5t41 53t56.5 26t63.5 -10t59.5 -55.5l215 -299q10 -8 19.5 -9t17.5 1t16 8l567 946q20 41 51 59.5t65 19.5t63.5 -14.5t47 -44t17.5 -68.5t-26 -87l-676 -1133q-20 -31 -49 -49t-63 -21t-67.5 13.5t-64.5 56.5l-348 459q-20 39 -20.5 78z" />
<glyph unicode="&#xf004;" horiz-adv-x="1931" d="M0 0v1202h602l-186 -184h-250v-852h1288v188l166 166v-520h-1620zM416 436q0 141 36.5 248t96 187.5t136.5 136t157 92.5q186 86 424 102v334l665 -541v-20l-665 -539v332q-125 0 -227.5 -14.5t-185.5 -37t-148.5 -52t-112.5 -62.5q-115 -72 -176 -166z" />
<glyph unicode="&#xf005;" horiz-adv-x="1703" d="M0 561v768q0 39 18.5 76t47 66.5t66.5 47t77 17.5h852q45 0 84 -17.5t65.5 -47t42 -66.5t15.5 -76v-43h-168q0 16 -7.5 31.5t-18.5 27t-25.5 18.5t-30.5 7h-768q-16 0 -30.5 -7t-27 -18.5t-18.5 -26.5t-6 -32v-684q0 -14 6 -29.5t18.5 -28t26.5 -19.5t31 -7h82v-166h-123 q-39 0 -77 15.5t-66.5 42t-47 65.5t-18.5 86zM416 227v750q0 45 17.5 87t49 72.5t72.5 49t88 18.5h850q41 0 78 -18.5t66.5 -49t48 -72.5t18.5 -87v-750q0 -47 -18.5 -88t-48 -71.5t-66.5 -49t-78 -18.5h-850q-47 0 -88 18.5t-72.5 49t-49 71.5t-17.5 88zM602 268 q0 -23 7 -41t18.5 -31.5t27 -20.5t29.5 -7h770q14 0 28.5 7t27 20.5t19.5 32t7 40.5v668q0 23 -7 38t-19.5 25.5t-27 14.5t-28.5 4h-770q-31 0 -56.5 -18.5t-25.5 -63.5v-668z" />
<glyph unicode="&#xf006;" horiz-adv-x="1703" d="M0 561v768q0 39 18.5 76t47 66.5t66.5 47t77 17.5h852q45 0 84 -17.5t65.5 -47t42 -66.5t15.5 -76v-43h-168q0 16 -7.5 31.5t-18.5 27t-25.5 18.5t-30.5 7h-768q-16 0 -30.5 -7t-27 -18.5t-18.5 -26.5t-6 -32v-684q0 -14 6 -29.5t18.5 -28t26.5 -19.5t31 -7h82v-166h-123 q-39 0 -77 15.5t-66.5 42t-47 65.5t-18.5 86zM416 227v750q0 45 17.5 87t49 72.5t72.5 49t88 18.5h850q41 0 78 -18.5t66.5 -49t48 -72.5t18.5 -87v-750q0 -47 -18.5 -88t-48 -71.5t-66.5 -49t-78 -18.5h-850q-47 0 -88 18.5t-72.5 49t-49 71.5t-17.5 88z" />
<glyph unicode="&#xf007;" horiz-adv-x="1536" d="M2 768q0 109 26.5 207t76 184t119 154.5t154.5 119t183 77t207 26.5q102 0 199.5 -26.5t183.5 -77t155.5 -119t121 -154.5t80 -184t28.5 -207q0 -102 -28.5 -199.5t-80 -182.5t-121 -155.5t-155.5 -122t-183.5 -79t-199.5 -27.5q-109 0 -207 27.5t-183 79t-154.5 122 t-119 155.5t-76 182.5t-26.5 199.5zM386 491.5q-1 -14.5 3 -28.5t11.5 -27.5t15.5 -19.5q6 -8 19.5 -15.5t27.5 -11.5t28.5 -3t20.5 9l256 256l256 -256q6 -8 20.5 -9t28.5 3t27.5 11.5t21.5 15.5q6 6 13.5 19.5t11.5 27.5t3 28.5t-7 20.5l-256 256l256 256q6 6 7 20.5 t-3 28.5t-11.5 27.5t-13.5 21.5q-8 6 -21.5 13.5t-27.5 11.5t-28.5 3t-20.5 -7l-256 -256l-256 256q-6 6 -20.5 7t-28.5 -3t-27.5 -11.5t-19.5 -13.5q-8 -8 -15.5 -21.5t-11.5 -27.5t-3 -28.5t9 -20.5l256 -256l-256 -256q-8 -6 -9 -20.5z" />
<glyph unicode="&#xf008;" horiz-adv-x="1433" d="M2 920q0 135 46 247.5t127 193.5t193.5 127t247.5 46q133 0 245 -46t194 -127t127 -193.5t45 -247.5q0 -115 -38 -221.5t-116 -184.5l359 -358l-154 -154l-358 358q-78 -39 -152 -45t-152 -6q-135 0 -247.5 45t-193.5 127t-127 193.5t-46 245.5zM207 920q0 -76 34.5 -149 t93 -130t131.5 -92t150 -35q76 0 149 35t130 92t92 130t35 149t-35 149.5t-92 132t-130 93t-149 34.5q-78 0 -150.5 -34.5t-131 -93t-93 -132.5t-34.5 -149z" />
<glyph unicode="&#xf009;" horiz-adv-x="1331" d="M0 666q0 135 53 255.5t144.5 212t212 144.5t256.5 53h51v205l461 -307l-461 -307v204h-51q-96 0 -180.5 -35.5t-147 -98t-98 -146.5t-35.5 -180t35.5 -180.5t98 -147t146.5 -98t181 -35.5q96 0 180 35.5t146.5 98t98 146.5t35.5 181v51h205v-51q0 -135 -53 -256 t-144.5 -212.5t-212 -144.5t-255.5 -53t-256 53t-212.5 144.5t-144.5 212t-53 256.5z" />
<glyph unicode="&#xf00a;" horiz-adv-x="1171" d="M0 1098v37q0 111 111 110h108v72q0 41 19.5 81t50 70.5t69.5 49t80 18.5h293q41 0 81 -18.5t70.5 -49t50 -70.5t19.5 -81v-72h109q111 0 110 -110v-37h-73v-916q0 -82 -49.5 -132t-133.5 -50h-659q-84 0 -133 50t-49 132v916h-74zM219 219q0 -29 22.5 -51.5t51.5 -22.5 h586q29 0 51 22.5t22 51.5v879h-733v-879zM293 330l37 -37h35q14 0 27.5 5t23.5 13q12 8 22 19v549q0 29 -22.5 51t-50.5 22h-35q-10 -10 -19 -22q-8 -10 -13 -23.5t-5 -27.5v-549zM365 1245h442v72q0 29 -23.5 51.5t-52.5 22.5h-293q-29 0 -51 -22.5t-22 -51.5v-72z M512 330l37 -37h35q14 0 27.5 5t23.5 13q12 8 22 19v549q0 29 -22.5 51t-50.5 22h-35q-10 -10 -19 -22q-8 -10 -13 -23.5t-5 -27.5v-549zM731 330l39 -37h37q12 0 25.5 5t23.5 13q12 8 23 19v549q0 29 -22.5 51t-49.5 22h-37q-12 -10 -20 -22q-8 -10 -13.5 -23.5t-5.5 -27.5 v-549z" />
<glyph unicode="&#xf00b;" horiz-adv-x="1482" d="M0 848l1483 688l-688 -1536v848h-795z" />
<glyph unicode="&#xf00c;" horiz-adv-x="0" d="M0 0v1126q96 76 186 119t173 61.5t158 15.5t136 -17q145 -35 269 -127q123 92 268 127q61 14 135 17t157 -15.5t174 -61.5t187 -119v-1126q-115 86 -216 132t-187 61.5t-159 7.5t-130 -29q-135 -51 -229 -172h-52q-80 121 -204 172q-53 20 -121 28.5t-151 -7t-181 -61.5 t-213 -132zM205 307q133 76 246.5 85t195.5 -9q96 -23 172 -76v717q-63 53 -153 76q-39 8 -87.5 12t-105.5 -3t-124.5 -26.5t-143.5 -58.5v-717zM1024 307q76 53 172 76q82 18 194.5 9t247.5 -85v717q-78 39 -144.5 58.5t-123.5 26.5t-105 3t-87 -12q-90 -23 -154 -76v-717z " />
<glyph unicode="&#xf00d;" horiz-adv-x="1716" d="M0 0h1716v543h-180v-363h-1356v363h-180v-543zM362 1083h361v453h270v-453h363l-498 -540h-43z" />
<glyph unicode="&#xf00e;" horiz-adv-x="1716" d="M0 362v812q0 68 30.5 133t82 116.5t117 82t132.5 30.5h994q68 0 132 -30.5t115.5 -82t82 -117t30.5 -132.5v-812q0 -68 -30.5 -133t-82 -116.5t-116 -82t-131.5 -30.5h-994q-68 0 -133 30.5t-116.5 82t-82 117t-30.5 132.5z" />
<glyph unicode="&#xf00f;" horiz-adv-x="2166" d="M0 272v1264h2167v-1264h-361l-180 179h361v903h-1807v-903h361l-181 -179h-360zM360 0l678 858h45l723 -858h-1446z" />
<glyph unicode="&#xf010;" horiz-adv-x="1280" d="M0 0v1536l1280 -768v-43z" />
<glyph unicode="&#xf011;" d="M0 0v1536h1624v-1536h-1624z" />
<glyph unicode="&#xf012;" horiz-adv-x="1003" d="M0 0v1536h354v-1536h-354zM649 0v1536h355v-1536h-355z" />
<glyph unicode="&#xf013;" horiz-adv-x="2164" d="M0 0v1536h281v-1536h-281zM453 733v35l802 768v-1536zM1362 733v35l803 768v-1536z" />
<glyph unicode="&#xf014;" horiz-adv-x="2164" d="M0 0v1536l803 -768v-35zM909 0v1536l803 -768v-35zM1884 0v1536h281v-1536h-281z" />
<glyph unicode="&#xf015;" horiz-adv-x="1710" d="M0 733v35l803 768v-1536zM907 733v35l803 768v-1536z" />
<glyph unicode="&#xf016;" horiz-adv-x="1710" d="M0 0v1536l803 -768v-35zM907 0v1536l803 -768v-35z" />
<glyph unicode="&#xf017;" horiz-adv-x="1792" d="M0 213v1110q0 96 58.5 154.5t154.5 58.5h1110q33 0 58.5 -5t25.5 -38l-127 -127h-1024q-33 0 -59.5 -26.5t-26.5 -59.5v-1024q0 -33 26.5 -59.5t59.5 -26.5h1024q33 0 59.5 26.5t26.5 59.5v428l170 170v-641q0 -96 -58.5 -154.5t-154.5 -58.5h-1110q-96 0 -154.5 58.5 t-58.5 154.5zM598 299l129 299l168 -170zM768 641l682 682l172 -172l-684 -682zM1493 1366l86 84q66 66 127 0l43 -43q66 -61 0 -127l-84 -86z" />
<glyph unicode="&#xf018;" horiz-adv-x="710" d="M0 436h162v129h387v-129h162l-357 -436h-14zM162 629v131h387v-131h-387zM162 825v129h387v-129h-387zM162 1020v129h387v-129h-387zM162 1212v129h387v-129h-387zM162 1407v129h387v-129h-387z" />
<glyph unicode="&#xf019;" d="M0 0v221h49v-172h162v-49h-211zM0 381v291h49v-291h-49zM0 844v293h49v-293h-49zM0 1296v224h211v-52h-162v-172h-49zM268 1008v288h979v-288h-30q-12 31 -21.5 50t-17 33.5t-10.5 24.5t-3 21q-20 23 -42.5 45t-45.5 37q-8 0 -22.5 5t-29.5 11t-28.5 11t-19.5 5h-82v-848 v-100l20 -31q23 -23 44.5 -25.5t35.5 -2.5h31v-23h-547v23h29q27 0 43 3t39 25l33 31v100v848h-80q-47 0 -87 -18.5t-85 -32.5q-16 -47 -38 -90t-44 -102h-21zM371 0v49h301v-49h-301zM371 1468v52h301v-52h-301zM834 0v49h305v-49h-305zM834 1468v52h305v-52h-305zM1298 0 v49h158v172h62v-221h-220zM1298 1468v52h220v-224h-62v172h-158zM1456 381v291h62v-291h-62zM1456 844v293h62v-293h-62z" />
<glyph unicode="&#xf01a;" d="M0 766q0 160 60.5 299t164 243.5t242.5 165t299 60.5t299 -60.5t243.5 -165t165 -243.5t60.5 -299t-60.5 -299t-165 -242.5t-243.5 -164t-299 -60.5t-299 60.5t-242.5 164t-164 242.5t-60.5 299z" />
<glyph unicode="&#xf01b;" d="M0 0v1536h1624v-1536h-1624z" />
</font>
</defs>
</svg>
